<svg width="96" height="96" viewBox="0 0 96 96" fill="none" xmlns="http://www.w3.org/2000/svg">
<rect width="96" height="96" rx="48" fill="#EDFFF2"/>
<path fill-rule="evenodd" clip-rule="evenodd" d="M39.8401 49.9226C36.2021 51.1383 32.8622 53.1615 30.0985 55.877C29.7291 56.2399 29.1356 56.2347 28.7727 55.8653C28.4098 55.496 28.415 54.9024 28.7843 54.5396C31.759 51.6168 35.3521 49.4427 39.262 48.1389L39.2867 48.1306L39.5585 49.028C39.2868 48.131 39.2865 48.1307 39.2867 48.1306L39.2889 48.1304L39.2922 48.1294L39.3025 48.1263L39.338 48.1159C39.3681 48.1073 39.4111 48.095 39.4667 48.0798C39.5778 48.0494 39.7389 48.007 39.9467 47.9565C40.3621 47.8557 40.9644 47.7228 41.7263 47.5904C43.2492 47.3259 45.4142 47.0625 48.001 47.0625C50.5878 47.0625 52.7527 47.3259 54.2757 47.5904C55.0375 47.7228 55.6398 47.8557 56.0553 47.9565C56.263 48.007 56.4242 48.0494 56.5353 48.0798C56.5908 48.095 56.6339 48.1073 56.664 48.1159L56.6994 48.1263L56.7098 48.1294L56.7131 48.1304C56.7133 48.1304 56.7152 48.131 56.4434 49.0282L56.7152 48.131L56.74 48.1385C60.6499 49.4424 64.2429 51.6168 67.2176 54.5396C67.5869 54.9024 67.5921 55.496 67.2293 55.8653C66.8664 56.2347 66.2728 56.2399 65.9035 55.877C63.1398 53.1615 59.7998 51.1383 56.1619 49.9226L56.144 49.9174C56.122 49.911 56.0872 49.9012 56.04 49.8883C55.9458 49.8624 55.8023 49.8246 55.613 49.7786C55.2342 49.6867 54.6725 49.5625 53.9547 49.4378C52.5185 49.1883 50.4622 48.9375 48.001 48.9375C45.5397 48.9375 43.4835 49.1883 42.0472 49.4378C41.3295 49.5625 40.7677 49.6867 40.389 49.7786C40.1997 49.8246 40.0562 49.8624 39.9619 49.8883C39.9148 49.9012 39.88 49.911 39.8579 49.9174L39.8401 49.9226Z" fill="url(#paint0_linear_9878_239032)"/>
<path d="M48 18C40.7513 18 34.875 23.8117 34.875 30.9808V33.1442C34.875 40.3133 40.7513 46.125 48 46.125C55.2487 46.125 61.125 40.3133 61.125 33.1442V30.9808C61.125 28.3268 60.3197 25.8588 58.9375 23.8028V18H48Z" fill="url(#paint1_linear_9878_239032)" fill-opacity="0.5"/>
<path d="M47.0172 54.2109C47.4192 53.4297 48.5808 53.4297 48.9828 54.2109L51.6102 59.3164C51.7698 59.6267 52.0784 59.8417 52.4354 59.8914L58.3104 60.7101C59.2094 60.8354 59.5683 61.8949 58.9178 62.5029L54.6666 66.477C54.4083 66.7185 54.2904 67.0664 54.3514 67.4074L55.355 73.0189C55.5086 73.8775 54.5688 74.5323 53.7648 74.1269L48.51 71.4775C48.1907 71.3165 47.8093 71.3165 47.49 71.4775L42.2352 74.1269C41.4312 74.5323 40.4914 73.8775 40.645 73.0189L41.6486 67.4074C41.7096 67.0664 41.5917 66.7185 41.3334 66.477L37.0822 62.5029C36.4317 61.8949 36.7906 60.8354 37.6896 60.7101L43.5646 59.8914C43.9216 59.8417 44.2302 59.6267 44.3898 59.3164L47.0172 54.2109Z" fill="url(#paint2_linear_9878_239032)"/>
<path fill-rule="evenodd" clip-rule="evenodd" d="M39.471 48.914C39.471 48.914 42.9001 48 48 48C53.0999 48 56.529 48.914 56.529 48.914C60.3446 50.0335 63.8494 51.8998 66.75 54.4074C66.3203 55.8012 64.9188 57.8735 62.1086 59.6337C61.997 59.5881 61.8763 59.5549 61.7472 59.5365L53.9139 58.4201C53.4379 58.3523 53.0264 58.0591 52.8136 57.6361L49.3104 50.674C48.7744 49.6087 47.2256 49.6087 46.6896 50.674L43.1864 57.6361C42.9735 58.0591 42.5621 58.3523 42.0861 58.4201L34.2528 59.5365C34.1237 59.5549 34.003 59.5881 33.8914 59.6337C31.0812 57.8735 29.6797 55.8012 29.25 54.4074C32.1506 51.8998 35.6554 50.0335 39.471 48.914Z" fill="url(#paint3_linear_9878_239032)" fill-opacity="0.5"/>
<path d="M26.556 61.6044C26.891 60.9652 27.859 60.9652 28.194 61.6044L30.3835 65.7816C30.5165 66.0355 30.7737 66.2114 31.0712 66.2521L35.967 66.9219C36.7161 67.0244 37.0153 67.8912 36.4732 68.3888L32.9305 71.6403C32.7153 71.8379 32.617 72.1225 32.6678 72.4015L33.5042 76.9928C33.6321 77.6953 32.849 78.231 32.179 77.8993L27.8 75.7316C27.5339 75.5999 27.2161 75.5999 26.95 75.7316L22.571 77.8993C21.901 78.231 21.1179 77.6953 21.2458 76.9928L22.0821 72.4015C22.133 72.1225 22.0347 71.8379 21.8195 71.6403L18.2768 68.3888C17.7347 67.8912 18.0339 67.0244 18.783 66.9219L23.6788 66.2521C23.9763 66.2114 24.2335 66.0354 24.3665 65.7816L26.556 61.6044Z" fill="url(#paint4_linear_9878_239032)"/>
<path d="M67.806 61.6044C68.141 60.9652 69.109 60.9652 69.444 61.6044L71.6335 65.7816C71.7665 66.0355 72.0237 66.2114 72.3212 66.2521L77.217 66.9219C77.9661 67.0244 78.2653 67.8912 77.7232 68.3888L74.1805 71.6403C73.9653 71.8379 73.867 72.1225 73.9178 72.4015L74.7542 76.9928C74.8821 77.6953 74.099 78.231 73.429 77.8993L69.05 75.7316C68.7839 75.5999 68.4661 75.5999 68.2 75.7316L63.821 77.8993C63.151 78.231 62.3679 77.6953 62.4958 76.9928L63.3321 72.4015C63.383 72.1225 63.2847 71.8379 63.0695 71.6403L59.5268 68.3888C58.9847 67.8912 59.2839 67.0244 60.033 66.9219L64.9288 66.2521C65.2263 66.2114 65.4835 66.0354 65.6165 65.7816L67.806 61.6044Z" fill="url(#paint5_linear_9878_239032)"/>
<defs>
<linearGradient id="paint0_linear_9878_239032" x1="51.8731" y1="57.8512" x2="46.9679" y2="44.862" gradientUnits="userSpaceOnUse">
<stop stop-color="#29FFCC"/>
<stop offset="1" stop-color="#207A8D" stop-opacity="0"/>
</linearGradient>
<linearGradient id="paint1_linear_9878_239032" x1="54.7526" y1="46.125" x2="42.8619" y2="9.184" gradientUnits="userSpaceOnUse">
<stop stop-color="#119E7C"/>
<stop offset="1" stop-color="#74E6FF" stop-opacity="0.17"/>
</linearGradient>
<linearGradient id="paint2_linear_9878_239032" x1="46.4821" y1="55.9167" x2="61.0285" y2="66.104" gradientUnits="userSpaceOnUse">
<stop stop-color="#00D763"/>
<stop offset="1" stop-color="#009999"/>
</linearGradient>
<linearGradient id="paint3_linear_9878_239032" x1="57.6465" y1="59.6337" x2="56.0884" y2="42.9154" gradientUnits="userSpaceOnUse">
<stop stop-color="#119E7C"/>
<stop offset="1" stop-color="#74E6FF" stop-opacity="0.17"/>
</linearGradient>
<linearGradient id="paint4_linear_9878_239032" x1="26.1101" y1="63" x2="38.0848" y2="71.5416" gradientUnits="userSpaceOnUse">
<stop stop-color="#00D763"/>
<stop offset="1" stop-color="#009999"/>
</linearGradient>
<linearGradient id="paint5_linear_9878_239032" x1="67.3601" y1="63" x2="79.3348" y2="71.5416" gradientUnits="userSpaceOnUse">
<stop stop-color="#00D763"/>
<stop offset="1" stop-color="#009999"/>
</linearGradient>
</defs>
</svg>
