<svg xmlns="http://www.w3.org/2000/svg" width="331" height="77" viewBox="0 0 331 77" fill="none">
<g filter="url(#filter0_d_393_3301)">
<mask id="path-1-inside-1_393_3301" fill="white">
<path fill-rule="evenodd" clip-rule="evenodd" d="M14 0H316C316 7.73199 322.268 14 330 14V58C322.268 58 316 64.268 316 72H14C14 64.268 7.73199 58 0 58V14C7.73199 14 14 7.73199 14 0Z"/>
</mask>
<path fill-rule="evenodd" clip-rule="evenodd" d="M14 0H316C316 7.73199 322.268 14 330 14V58C322.268 58 316 64.268 316 72H14C14 64.268 7.73199 58 0 58V14C7.73199 14 14 7.73199 14 0Z" fill="url(#paint0_linear_393_3301)"/>
<path d="M316 0H319.5V-3.5H316V0ZM14 0V-3.5H10.5V0H14ZM330 14H333.5V10.5H330V14ZM330 58V61.5H333.5V58H330ZM316 72V75.5H319.5V72H316ZM14 72H10.5V75.5H14V72ZM0 58H-3.5V61.5H0V58ZM0 14V10.5H-3.5V14H0ZM316 -3.5H14V3.5H316V-3.5ZM330 10.5C324.201 10.5 319.5 5.79899 319.5 0H312.5C312.5 9.66498 320.335 17.5 330 17.5V10.5ZM333.5 58V14H326.5V58H333.5ZM319.5 72C319.5 66.201 324.201 61.5 330 61.5V54.5C320.335 54.5 312.5 62.335 312.5 72H319.5ZM14 75.5H316V68.5H14V75.5ZM0 61.5C5.79899 61.5 10.5 66.201 10.5 72H17.5C17.5 62.335 9.66498 54.5 0 54.5V61.5ZM-3.5 14V58H3.5V14H-3.5ZM10.5 0C10.5 5.79899 5.79899 10.5 0 10.5V17.5C9.66498 17.5 17.5 9.66498 17.5 0H10.5Z" fill="url(#paint1_linear_393_3301)" mask="url(#path-1-inside-1_393_3301)"/>
</g>

<defs>
<filter id="filter0_d_393_3301" x="0" y="0" width="331" height="77" filterUnits="userSpaceOnUse" color-interpolation-filters="sRGB">
<feFlood flood-opacity="0" result="BackgroundImageFix"/>
<feColorMatrix in="SourceAlpha" type="matrix" values="0 0 0 0 0 0 0 0 0 0 0 0 0 0 0 0 0 0 127 0" result="hardAlpha"/>
<feOffset dx="1" dy="5"/>
<feComposite in2="hardAlpha" operator="out"/>
<feColorMatrix type="matrix" values="0 0 0 0 0 0 0 0 0 0.243333 0 0 0 0 0.194667 0 0 0 0.7 0"/>
<feBlend mode="normal" in2="BackgroundImageFix" result="effect1_dropShadow_393_3301"/>
<feBlend mode="normal" in="SourceGraphic" in2="effect1_dropShadow_393_3301" result="shape"/>
</filter>
<filter id="filter1_d_393_3301" x="61.4155" y="24.248" width="206.3" height="25.785" filterUnits="userSpaceOnUse" color-interpolation-filters="sRGB">
<feFlood flood-opacity="0" result="BackgroundImageFix"/>
<feColorMatrix in="SourceAlpha" type="matrix" values="0 0 0 0 0 0 0 0 0 0 0 0 0 0 0 0 0 0 127 0" result="hardAlpha"/>
<feOffset dy="2.68105"/>
<feComposite in2="hardAlpha" operator="out"/>
<feColorMatrix type="matrix" values="0 0 0 0 0.81 0 0 0 0 0.727613 0 0 0 0 0.3645 0 0 0 1 0"/>
<feBlend mode="normal" in2="BackgroundImageFix" result="effect1_dropShadow_393_3301"/>
<feBlend mode="normal" in="SourceGraphic" in2="effect1_dropShadow_393_3301" result="shape"/>
</filter>
<linearGradient id="paint0_linear_393_3301" x1="-125.115" y1="36.7154" x2="518.336" y2="36.7154" gradientUnits="userSpaceOnUse">
<stop stop-color="#FDDD5E"/>
<stop offset="0.484" stop-color="#FFEA7E"/>
<stop offset="1" stop-color="#FFD15A"/>
</linearGradient>
<linearGradient id="paint1_linear_393_3301" x1="-125.115" y1="36.7154" x2="518.336" y2="36.7154" gradientUnits="userSpaceOnUse">
<stop stop-color="#FAFCC4"/>
<stop offset="0.209" stop-color="#848446"/>
<stop offset="0.485" stop-color="#FFEEAD"/>
<stop offset="0.694" stop-color="#CAB12B"/>
<stop offset="1" stop-color="#FFF7C9"/>
</linearGradient>
</defs>
</svg>