<svg width="96" height="96" viewBox="0 0 96 96" fill="none" xmlns="http://www.w3.org/2000/svg">
<rect width="96" height="96" rx="48" fill="#EDFFF2"/>
<rect x="22" y="26" width="52" height="44" rx="4" fill="url(#paint0_linear_10549_154013)" fill-opacity="0.5"/>
<path d="M22 30C22 27.7909 23.7909 26 26 26H70C72.2091 26 74 27.7909 74 30V34H22V30Z" fill="url(#paint1_linear_10549_154013)"/>
<rect x="28" y="40" width="40" height="4" rx="2" fill="url(#paint2_linear_10549_154013)"/>
<rect x="28" y="46" width="32" height="4" rx="2" fill="url(#paint3_linear_10549_154013)"/>
<g clip-path="url(#clip0_10549_154013)">
<circle cx="65" cy="63" r="19" fill="#EDFFF2"/>
<path d="M65 48C62.0333 48 59.1332 48.8797 56.6665 50.528C54.1997 52.1762 52.2771 54.5189 51.1418 57.2597C50.0065 60.0006 49.7094 63.0166 50.2882 65.9263C50.867 68.8361 52.2956 71.5088 54.3934 73.6066C56.4912 75.7044 59.1639 77.133 62.0737 77.7118C64.9834 78.2905 67.9994 77.9935 70.7403 76.8582C73.4811 75.7229 75.8238 73.8003 77.472 71.3335C79.1203 68.8668 80 65.9667 80 63C79.9954 59.0232 78.4136 55.2105 75.6016 52.3984C72.7895 49.5864 68.9768 48.0046 65 48ZM70.3291 67.3417L64.3291 64.3417C64.0799 64.2171 63.8704 64.0256 63.7239 63.7886C63.5775 63.5516 63.5 63.2786 63.5 63V55.5C63.5 55.1022 63.658 54.7206 63.9393 54.4393C64.2206 54.158 64.6022 54 65 54C65.3978 54 65.7794 54.158 66.0607 54.4393C66.342 54.7206 66.5 55.1022 66.5 55.5V62.0727L71.671 64.6581C72.0268 64.836 72.2974 65.1481 72.4232 65.5255C72.5491 65.903 72.5198 66.315 72.3418 66.6709C72.1639 67.0267 71.8519 67.2974 71.4744 67.4232C71.0969 67.549 70.6849 67.5197 70.3291 67.3417Z" fill="url(#paint4_linear_10549_154013)"/>
</g>
<defs>
<linearGradient id="paint0_linear_10549_154013" x1="74" y1="22.7407" x2="74" y2="87.9259" gradientUnits="userSpaceOnUse">
<stop stop-color="#74E6FF" stop-opacity="0.3"/>
<stop offset="1" stop-color="#119E7C"/>
</linearGradient>
<linearGradient id="paint1_linear_10549_154013" x1="74" y1="34" x2="22" y2="34" gradientUnits="userSpaceOnUse">
<stop stop-color="#29FFCC"/>
<stop offset="1" stop-color="#207A8D" stop-opacity="0"/>
</linearGradient>
<linearGradient id="paint2_linear_10549_154013" x1="68" y1="44" x2="28" y2="44" gradientUnits="userSpaceOnUse">
<stop stop-color="#29FFCC"/>
<stop offset="1" stop-color="#207A8D" stop-opacity="0"/>
</linearGradient>
<linearGradient id="paint3_linear_10549_154013" x1="60" y1="50" x2="28" y2="50" gradientUnits="userSpaceOnUse">
<stop stop-color="#29FFCC"/>
<stop offset="1" stop-color="#207A8D" stop-opacity="0"/>
</linearGradient>
<linearGradient id="paint4_linear_10549_154013" x1="62.9762" y1="51.3333" x2="83.4474" y2="64.4753" gradientUnits="userSpaceOnUse">
<stop stop-color="#00D763"/>
<stop offset="1" stop-color="#009999"/>
</linearGradient>
<clipPath id="clip0_10549_154013">
<rect width="38" height="38" fill="white" transform="translate(46 44)"/>
</clipPath>
</defs>
</svg>
