<svg width="21" height="20" viewBox="0 0 21 20" fill="none" xmlns="http://www.w3.org/2000/svg">
<g clip-path="url(#clip0_426_50211)">
<circle cx="10.5" cy="10" r="10" fill="url(#paint0_linear_426_50211)"/>
<g filter="url(#filter0_ii_426_50211)">
<circle cx="10.5002" cy="9.99996" r="7.89474" fill="url(#paint1_linear_426_50211)"/>
</g>
<mask id="mask0_426_50211" style="mask-type:alpha" maskUnits="userSpaceOnUse" x="2" y="2" width="17" height="16">
<circle cx="10.4963" cy="10.0001" r="7.89474" fill="url(#paint2_linear_426_50211)"/>
</mask>
<g mask="url(#mask0_426_50211)">
<g style="mix-blend-mode:color-dodge" opacity="0.3">
<path d="M1.19922 15.7896L15.2928 0.351013L17.8659 1.98844L3.8308 17.4855L1.19922 15.7896Z" fill="#ED5D1A"/>
<path d="M5.17583 18.2457L18.977 2.74867V3.85978L6.16998 18.2457H5.17583Z" fill="#ED5D1A"/>
</g>
</g>
<path d="M15.437 3.70796L15.6798 5.42896L15.8849 3.69608L16.2 3.3791L17.9713 3.11747L16.1943 2.94251L15.8757 2.64189L15.633 0.920884L15.426 2.65273L15.1123 2.96929L13.3415 3.23237L15.1166 3.4063L15.437 3.70796Z" fill="white"/>
<path d="M11.543 13.1568V6.34314H14.3576C14.8677 6.34314 15.308 6.44295 15.6784 6.64257C16.051 6.83997 16.3383 7.11611 16.5401 7.47099C16.742 7.82365 16.8429 8.23398 16.8429 8.70198C16.8429 9.1722 16.7397 9.58363 16.5335 9.93629C16.3294 10.2867 16.0377 10.5584 15.6585 10.7514C15.2792 10.9444 14.8289 11.0409 14.3077 11.0409H12.571V9.74333H14.0016C14.25 9.74333 14.4574 9.70008 14.6238 9.61358C14.7923 9.52707 14.9199 9.40619 15.0064 9.25093C15.0929 9.09346 15.1361 8.91047 15.1361 8.70198C15.1361 8.49127 15.0929 8.30939 15.0064 8.15635C14.9199 8.00109 14.7923 7.88132 14.6238 7.79704C14.4552 7.71275 14.2478 7.67061 14.0016 7.67061H13.1898V13.1568H11.543Z" fill="#FBEFE9"/>
<path d="M10.5081 8.81179H8.84458C8.8224 8.641 8.77693 8.48685 8.70817 8.34933C8.63942 8.21182 8.54848 8.09426 8.43536 7.99667C8.32224 7.89908 8.18805 7.82478 8.03279 7.77376C7.87975 7.72053 7.71008 7.69392 7.52376 7.69392C7.19328 7.69392 6.90827 7.77487 6.66873 7.93679C6.4314 8.0987 6.24842 8.3327 6.11977 8.63878C5.99335 8.94487 5.93013 9.31527 5.93013 9.75C5.93013 10.2025 5.99445 10.5817 6.1231 10.8878C6.25396 11.1917 6.43695 11.4213 6.67205 11.5765C6.90938 11.7296 7.18996 11.8061 7.51378 11.8061C7.69566 11.8061 7.8609 11.7828 8.0095 11.7362C8.16033 11.6896 8.2923 11.622 8.40542 11.5333C8.52075 11.4423 8.61502 11.3325 8.68821 11.2039C8.76362 11.073 8.81575 10.9255 8.84458 10.7614L10.5081 10.7714C10.4792 11.073 10.3916 11.3702 10.2452 11.663C10.1011 11.9558 9.90257 12.2231 9.64971 12.4648C9.39686 12.7044 9.08856 12.8951 8.72481 13.0371C8.36328 13.179 7.94851 13.25 7.48051 13.25C6.86391 13.25 6.31163 13.1147 5.82367 12.8441C5.33793 12.5713 4.95421 12.1743 4.67253 11.653C4.39084 11.1318 4.25 10.4975 4.25 9.75C4.25 9.00032 4.39306 8.36486 4.67918 7.84363C4.9653 7.3224 5.35234 6.92649 5.8403 6.65589C6.32826 6.3853 6.875 6.25 7.48051 6.25C7.89306 6.25 8.27456 6.30767 8.625 6.423C8.97544 6.53612 9.28374 6.70247 9.5499 6.92205C9.81606 7.13942 10.0323 7.40669 10.1987 7.72386C10.365 8.04103 10.4682 8.40368 10.5081 8.81179Z" fill="#FBEFE9"/>
</g>
<defs>
<filter id="filter0_ii_426_50211" x="2.60547" y="2.10522" width="15.7891" height="15.7895" filterUnits="userSpaceOnUse" color-interpolation-filters="sRGB">
<feFlood flood-opacity="0" result="BackgroundImageFix"/>
<feBlend mode="normal" in="SourceGraphic" in2="BackgroundImageFix" result="shape"/>
<feColorMatrix in="SourceAlpha" type="matrix" values="0 0 0 0 0 0 0 0 0 0 0 0 0 0 0 0 0 0 127 0" result="hardAlpha"/>
<feOffset dy="0.584795"/>
<feComposite in2="hardAlpha" operator="arithmetic" k2="-1" k3="1"/>
<feColorMatrix type="matrix" values="0 0 0 0 0.781778 0 0 0 0 0.303511 0 0 0 0 0.123683 0 0 0 1 0"/>
<feBlend mode="normal" in2="shape" result="effect1_innerShadow_426_50211"/>
<feColorMatrix in="SourceAlpha" type="matrix" values="0 0 0 0 0 0 0 0 0 0 0 0 0 0 0 0 0 0 127 0" result="hardAlpha"/>
<feOffset dy="-0.701754"/>
<feComposite in2="hardAlpha" operator="arithmetic" k2="-1" k3="1"/>
<feColorMatrix type="matrix" values="0 0 0 0 0.923685 0 0 0 0 0.739248 0 0 0 0 0.658009 0 0 0 1 0"/>
<feBlend mode="normal" in2="effect1_innerShadow_426_50211" result="effect2_innerShadow_426_50211"/>
</filter>
<linearGradient id="paint0_linear_426_50211" x1="19.2134" y1="16.1403" x2="3.24854" y2="2.98246" gradientUnits="userSpaceOnUse">
<stop stop-color="#BC4E29"/>
<stop offset="0.440826" stop-color="#EDA984"/>
<stop offset="1" stop-color="#B74D2A"/>
</linearGradient>
<linearGradient id="paint1_linear_426_50211" x1="10.5002" y1="2.10522" x2="10.5002" y2="17.8947" gradientUnits="userSpaceOnUse">
<stop stop-color="#CC5528"/>
<stop offset="1" stop-color="#DC9073"/>
</linearGradient>
<linearGradient id="paint2_linear_426_50211" x1="10.4963" y1="2.10541" x2="10.4963" y2="17.8949" gradientUnits="userSpaceOnUse">
<stop stop-color="#DD5927"/>
<stop offset="1" stop-color="#DC9073"/>
</linearGradient>
<clipPath id="clip0_426_50211">
<rect width="20" height="20" fill="white" transform="translate(0.5)"/>
</clipPath>
</defs>
</svg>
